<?xml version="1.0" encoding="UTF-8"?>
<!DOCTYPE svg PUBLIC "-//W3C//DTD SVG 1.1//EN" "http://www.w3.org/Graphics/SVG/1.1/DTD/svg11.dtd">
<svg xmlns="http://www.w3.org/2000/svg" version="1.1" width="410px" height="144px" style="shape-rendering:geometricPrecision; text-rendering:geometricPrecision; image-rendering:optimizeQuality; fill-rule:evenodd; clip-rule:evenodd" xmlns:xlink="http://www.w3.org/1999/xlink">
<g><path style="opacity:0.966" fill="#05ac5e" d="M 279.5,24.5 C 280.167,24.5 280.5,24.8333 280.5,25.5C 273.951,28.3654 268.118,32.3654 263,37.5C 260.453,41.2853 259.953,45.2853 261.5,49.5C 269.984,50.493 278.651,50.8264 287.5,50.5C 287.5,52.8333 287.5,55.1667 287.5,57.5C 287.5,60.5 287.5,63.5 287.5,66.5C 283.774,66.1774 280.107,66.5108 276.5,67.5C 279.428,68.4841 282.428,68.8174 285.5,68.5C 284.89,69.391 284.557,70.391 284.5,71.5C 283.167,72.1667 282.167,73.1667 281.5,74.5C 280.711,74.7828 280.044,75.2828 279.5,76C 281.81,76.4966 284.143,76.6633 286.5,76.5C 288.197,78.3052 289.03,80.6385 289,83.5C 292.478,72.2352 295.645,60.9018 298.5,49.5C 303.167,49.5 307.833,49.5 312.5,49.5C 312.5,50.5 312.5,51.5 312.5,52.5C 312.167,52.5 311.833,52.5 311.5,52.5C 308.102,52.1796 304.768,52.513 301.5,53.5C 297.423,66.062 293.757,78.7286 290.5,91.5C 294.833,91.5 299.167,91.5 303.5,91.5C 300.316,93.4136 296.649,94.0803 292.5,93.5C 291.5,93.5 290.5,93.5 289.5,93.5C 281.167,93.5 272.833,93.5 264.5,93.5C 262.585,93.7845 260.919,93.4511 259.5,92.5C 259.5,88.5 259.5,84.5 259.5,80.5C 259.5,75.8333 259.5,71.1667 259.5,66.5C 259.916,60.0478 259.416,53.7145 258,47.5C 254.469,43.3768 249.969,41.7101 244.5,42.5C 242.901,42.2322 241.568,42.5655 240.5,43.5C 237.183,44.4967 233.85,45.4967 230.5,46.5C 230.5,45.8333 230.167,45.5 229.5,45.5C 233.183,43.6591 236.516,41.3258 239.5,38.5C 241.933,38.7271 243.599,37.7271 244.5,35.5C 247.16,33.1739 248.493,30.1739 248.5,26.5C 247.53,22.1199 246.697,17.7866 246,13.5C 247.92,16.3388 249.587,19.3388 251,22.5C 254.624,27.4861 259.457,29.3195 265.5,28C 270.186,26.8286 274.852,25.6619 279.5,24.5 Z"/></g>
<g><path style="opacity:0.482" fill="#007a3f" d="M 280.5,25.5 C 280.5,24.8333 280.167,24.5 279.5,24.5C 284.839,21.443 290.506,19.2764 296.5,18C 291.305,20.7877 285.971,23.2877 280.5,25.5 Z"/></g>
<g><path style="opacity:0.74" fill="#a97696" d="M 244.5,35.5 C 243.599,37.7271 241.933,38.7271 239.5,38.5C 237.325,36.4208 234.658,35.4208 231.5,35.5C 218.65,37.1725 206.65,41.3391 195.5,48C 196.416,48.2784 197.082,48.7784 197.5,49.5C 196.833,49.5 196.167,49.5 195.5,49.5C 194.5,48.8333 193.5,48.1667 192.5,47.5C 204.997,39.5538 218.664,34.5538 233.5,32.5C 237.352,32.8962 241.019,33.8962 244.5,35.5 Z"/></g>
<g><path style="opacity:0.882" fill="#b685a5" d="M 244.5,42.5 C 243.695,44.9154 242.695,47.2487 241.5,49.5C 240.348,50.625 239.348,50.625 238.5,49.5C 239.167,47.5 239.833,45.5 240.5,43.5C 241.568,42.5655 242.901,42.2322 244.5,42.5 Z"/></g>
<g><path style="opacity:0.982" fill="#d294bc" d="M 192.5,47.5 C 193.5,48.1667 194.5,48.8333 195.5,49.5C 190.958,51.6989 186.958,54.6989 183.5,58.5C 181.5,58.5 180.5,59.5 180.5,61.5C 181.562,63.0992 181.562,64.7659 180.5,66.5C 179.631,68.717 179.298,71.0504 179.5,73.5C 178.041,73.5674 176.708,73.2341 175.5,72.5C 174.879,67.3979 174.213,62.3979 173.5,57.5C 173.5,55.1667 173.5,52.8333 173.5,50.5C 167.833,50.5 162.167,50.5 156.5,50.5C 156.5,54.5 156.5,58.5 156.5,62.5C 156.167,62.5 155.833,62.5 155.5,62.5C 155.167,62.5 154.833,62.5 154.5,62.5C 152.474,59.4822 150.474,56.4822 148.5,53.5C 148.511,51.9826 149.177,50.8159 150.5,50C 163.55,45.8648 176.716,45.3648 190,48.5C 190.671,47.7476 191.504,47.4142 192.5,47.5 Z"/></g>
<g><path style="opacity:0.133" fill="#015a30" d="M 36.5,50.5 C 31.3814,49.8969 26.7147,50.5636 22.5,52.5C 22.1667,52.5 21.8333,52.5 21.5,52.5C 21.5,51.5 21.5,50.5 21.5,49.5C 26.6946,49.1795 31.6946,49.5128 36.5,50.5 Z"/></g>
<g><path style="opacity:0.133" fill="#005d30" d="M 63.5,50.5 C 68.6405,49.5119 73.9738,49.1786 79.5,49.5C 79.5,52.1667 79.5,54.8333 79.5,57.5C 79.1667,57.5 78.8333,57.5 78.5,57.5C 78.5,55.1667 78.5,52.8333 78.5,50.5C 73.5,50.5 68.5,50.5 63.5,50.5 Z"/></g>
<g><path style="opacity:0.134" fill="#005d30" d="M 261.5,49.5 C 270.5,49.5 279.5,49.5 288.5,49.5C 288.5,52.1667 288.5,54.8333 288.5,57.5C 288.167,57.5 287.833,57.5 287.5,57.5C 287.5,55.1667 287.5,52.8333 287.5,50.5C 278.651,50.8264 269.984,50.493 261.5,49.5 Z"/></g>
<g><path style="opacity:0.989" fill="#05b162" d="M 36.5,50.5 C 43.3093,50.9769 46.6426,54.6436 46.5,61.5C 46.4971,64.675 45.4971,67.5084 43.5,70C 44.7051,71.3756 46.0384,72.5423 47.5,73.5C 48.2341,74.7079 48.5674,76.0413 48.5,77.5C 49.6685,83.661 47.6685,88.4943 42.5,92C 37.5988,93.3254 32.5988,93.8254 27.5,93.5C 25.8333,93.5 24.1667,93.5 22.5,93.5C 27.1667,92.8333 31.8333,92.1667 36.5,91.5C 43.1733,89.1519 46.0066,84.4852 45,77.5C 43.3279,74.6629 41.1613,72.3296 38.5,70.5C 44.4279,63.761 43.7612,57.9276 36.5,53C 31.8452,52.5008 27.1785,52.3342 22.5,52.5C 26.7147,50.5636 31.3814,49.8969 36.5,50.5 Z"/></g>
<g><path style="opacity:0.993" fill="#0caf67" d="M 63.5,50.5 C 68.5,50.5 73.5,50.5 78.5,50.5C 78.5,52.8333 78.5,55.1667 78.5,57.5C 78.5,60.5 78.5,63.5 78.5,66.5C 76.8008,66.3398 75.1341,66.5065 73.5,67C 75.0375,68.7073 76.7041,70.2073 78.5,71.5C 79.3007,73.0418 79.634,74.7085 79.5,76.5C 79.5,77.1667 79.5,77.8333 79.5,78.5C 78.8513,89.8139 72.8513,95.1473 61.5,94.5C 62.8333,93.8333 64.1667,93.1667 65.5,92.5C 72.5841,90.9058 76.2508,86.4058 76.5,79C 75.7832,71.9504 71.9499,67.7837 65,66.5C 64.5008,71.1548 64.3342,75.8215 64.5,80.5C 63.5,80.5 62.5,80.5 61.5,80.5C 61.1795,75.3054 61.5128,70.3054 62.5,65.5C 66.8333,65.5 71.1667,65.5 75.5,65.5C 75.8182,60.9677 75.4849,56.6344 74.5,52.5C 69.1563,52.334 63.8229,52.5006 58.5,53C 54.9791,54.6904 52.3124,57.1904 50.5,60.5C 52.3187,54.0724 56.652,50.7391 63.5,50.5 Z"/></g>
<g><path style="opacity:0.267" fill="#005e31" d="M 110.5,50.5 C 100.442,49.86 90.7755,50.5267 81.5,52.5C 81.5,61.1667 81.5,69.8333 81.5,78.5C 81.5,79.1667 81.5,79.8333 81.5,80.5C 81.5654,80.9382 81.3988,81.2716 81,81.5C 80.7679,80.2625 80.2679,79.2625 79.5,78.5C 79.5,77.8333 79.5,77.1667 79.5,76.5C 80.4511,75.0813 80.7845,73.4147 80.5,71.5C 80.5,66.8333 80.5,62.1667 80.5,57.5C 80.5,54.8333 80.5,52.1667 80.5,49.5C 90.6806,49.1726 100.681,49.506 110.5,50.5 Z"/></g>
<g><path style="opacity:0.969" fill="#07b365" d="M 110.5,50.5 C 110.5,52.8333 110.5,55.1667 110.5,57.5C 110.5,60.5 110.5,63.5 110.5,66.5C 108.473,66.3379 106.473,66.5045 104.5,67C 106.362,68.3657 108.028,69.8657 109.5,71.5C 109.833,72.8333 110.167,72.8333 110.5,71.5C 111.295,72.5277 111.962,74.1944 112.5,76.5C 112.5,77.1667 112.5,77.8333 112.5,78.5C 112.167,79.1667 111.833,79.8333 111.5,80.5C 109.326,90.0008 103.326,94.6674 93.5,94.5C 94.8333,93.8333 96.1667,93.1667 97.5,92.5C 104.35,90.9756 108.017,86.6422 108.5,79.5C 106.799,71.799 102.132,67.1324 94.5,65.5C 98.8333,65.5 103.167,65.5 107.5,65.5C 107.818,60.9677 107.485,56.6344 106.5,52.5C 98.1667,52.5 89.8333,52.5 81.5,52.5C 90.7755,50.5267 100.442,49.86 110.5,50.5 Z"/></g>
<g><path style="opacity:0.98" fill="#1aaf69" d="M 173.5,57.5 C 172.877,64.2547 173.544,70.588 175.5,76.5C 176.833,76.5 178.167,76.5 179.5,76.5C 179.5,75.5 179.5,74.5 179.5,73.5C 179.298,71.0504 179.631,68.717 180.5,66.5C 181.167,66.5 181.5,66.8333 181.5,67.5C 180.887,74.9904 182.887,81.6571 187.5,87.5C 186.833,87.5 186.167,87.5 185.5,87.5C 185.167,86.5 184.5,85.8333 183.5,85.5C 183.672,84.5084 183.338,83.8417 182.5,83.5C 182.5,83.1667 182.5,82.8333 182.5,82.5C 182.217,81.7109 181.717,81.0442 181,80.5C 180.501,84.8206 180.334,89.1539 180.5,93.5C 173.167,93.5 165.833,93.5 158.5,93.5C 158.167,93.5 157.833,93.5 157.5,93.5C 157.167,93.5 156.833,93.5 156.5,93.5C 156.5,83.1667 156.5,72.8333 156.5,62.5C 156.5,58.5 156.5,54.5 156.5,50.5C 162.167,50.5 167.833,50.5 173.5,50.5C 173.5,52.8333 173.5,55.1667 173.5,57.5 Z M 175.5,72.5 C 176.708,73.2341 178.041,73.5674 179.5,73.5C 179.5,74.5 179.5,75.5 179.5,76.5C 178.167,76.5 176.833,76.5 175.5,76.5C 175.5,75.1667 175.5,73.8333 175.5,72.5 Z"/></g>
<g><path style="opacity:0.994" fill="#0aac65" d="M 238.5,49.5 C 239.348,50.625 240.348,50.625 241.5,49.5C 245.345,49.2878 248.679,50.2878 251.5,52.5C 250.5,52.5 249.5,52.5 248.5,52.5C 246.5,52.5 244.5,52.5 242.5,52.5C 242.5,65.5 242.5,78.5 242.5,91.5C 243.833,92.1667 245.167,92.8333 246.5,93.5C 246.167,93.5 245.833,93.5 245.5,93.5C 245.167,93.5 244.833,93.5 244.5,93.5C 239.833,93.5 235.167,93.5 230.5,93.5C 228.833,93.5 227.167,93.5 225.5,93.5C 225.5,91.5 225.5,89.5 225.5,87.5C 225.5,83.8333 225.5,80.1667 225.5,76.5C 225.5,73.1667 225.5,69.8333 225.5,66.5C 225.5,62.5 225.5,58.5 225.5,54.5C 225.5,52.8333 225.5,51.1667 225.5,49.5C 229.833,49.5 234.167,49.5 238.5,49.5 Z"/></g>
<g><path style="opacity:0.994" fill="#06b061" d="M 380.5,50.5 C 380.5,51.1667 380.167,51.5 379.5,51.5C 366.467,51.5646 361.633,57.898 365,70.5C 368.078,74.0845 371.578,77.0845 375.5,79.5C 371.298,79.1832 367.298,79.5166 363.5,80.5C 363.631,87.2892 366.965,91.2892 373.5,92.5C 374.609,93.29 375.942,93.79 377.5,94C 374.112,94.6588 370.779,94.4922 367.5,93.5C 364.527,92.1897 362.193,90.1897 360.5,87.5C 360.007,85.1944 359.674,82.861 359.5,80.5C 359.263,79.209 359.596,78.209 360.5,77.5C 361.5,77.5 362.5,77.5 363.5,77.5C 366.853,77.6547 367.186,76.9881 364.5,75.5C 363.136,73.8089 361.803,72.1423 360.5,70.5C 359.228,61.0574 353.895,55.2241 344.5,53C 338.509,52.5005 332.509,52.3338 326.5,52.5C 326.5,65.5 326.5,78.5 326.5,91.5C 331.833,92.1667 337.167,92.8333 342.5,93.5C 337.833,93.5 333.167,93.5 328.5,93.5C 327.5,93.5 326.5,93.5 325.5,93.5C 320.833,93.5 316.167,93.5 311.5,93.5C 310.167,93.5 308.833,93.5 307.5,93.5C 307.231,90.9855 306.231,88.9855 304.5,87.5C 304.721,84.6081 305.554,81.9415 307,79.5C 308.171,83.5185 309.337,87.5185 310.5,91.5C 314.634,92.4849 318.968,92.8182 323.5,92.5C 323.5,90.5 323.5,88.5 323.5,86.5C 323.5,74.1667 323.5,61.8333 323.5,49.5C 333.592,48.5641 343.259,50.0641 352.5,54C 355.04,56.2047 357.207,58.7047 359,61.5C 362.473,50.1811 369.639,46.5144 380.5,50.5 Z M 364.5,75.5 C 367.186,76.9881 366.853,77.6547 363.5,77.5C 363.328,76.5084 363.662,75.8417 364.5,75.5 Z"/></g>
<g><path style="opacity:1" fill="#024bab" d="M 123.5,91.5 C 118.709,88.0485 115.042,83.7152 112.5,78.5C 112.5,77.8333 112.5,77.1667 112.5,76.5C 112.5,73.5 112.5,70.5 112.5,67.5C 117.51,53.6614 127.177,48.828 141.5,53C 148.602,56.702 152.602,62.5353 153.5,70.5C 148.456,70.8275 143.456,70.4941 138.5,69.5C 135.76,65.0523 132.26,64.3856 128,67.5C 124.752,75.2415 127.252,78.7415 135.5,78C 136.687,76.9805 137.687,75.8139 138.5,74.5C 143.456,73.5059 148.456,73.1725 153.5,73.5C 153.666,79.8421 153.5,86.1754 153,92.5C 151.692,90.3586 150.192,88.3586 148.5,86.5C 141.106,92.4422 132.772,94.1088 123.5,91.5 Z"/></g>
<g><path style="opacity:1" fill="#024bac" d="M 187.5,87.5 C 182.887,81.6571 180.887,74.9904 181.5,67.5C 189.744,50.1217 201.91,46.7883 218,57.5C 225.759,68.6706 224.926,79.1706 215.5,89C 205.78,94.084 196.447,93.584 187.5,87.5 Z"/></g>
<g><path style="opacity:1" fill="#014bab" d="M 379.5,51.5 C 382.067,52.7169 384.4,54.3835 386.5,56.5C 387.931,57.7804 388.598,59.4471 388.5,61.5C 388.5,62.5 388.5,63.5 388.5,64.5C 384.233,64.797 380.066,64.4637 376,63.5C 376.994,66.2929 379.161,67.9596 382.5,68.5C 383.5,70.1667 384.833,71.5 386.5,72.5C 387.931,73.7804 388.598,75.4471 388.5,77.5C 389.072,88.0507 384.072,93.0507 373.5,92.5C 366.965,91.2892 363.631,87.2892 363.5,80.5C 367.571,80.2338 371.571,80.5672 375.5,81.5C 376.773,80.7435 376.773,80.0768 375.5,79.5C 371.578,77.0845 368.078,74.0845 365,70.5C 361.633,57.898 366.467,51.5646 379.5,51.5 Z"/></g>
<g><path style="opacity:1" fill="#0a7155" d="M 380.5,50.5 C 383.5,51.5 385.5,53.5 386.5,56.5C 384.4,54.3835 382.067,52.7169 379.5,51.5C 380.167,51.5 380.5,51.1667 380.5,50.5 Z"/></g>
<g><path style="opacity:0.983" fill="#034bab" d="M 21.5,52.5 C 21.8333,52.5 22.1667,52.5 22.5,52.5C 27.1785,52.3342 31.8452,52.5008 36.5,53C 43.7612,57.9276 44.4279,63.761 38.5,70.5C 41.1613,72.3296 43.3279,74.6629 45,77.5C 46.0066,84.4852 43.1733,89.1519 36.5,91.5C 31.5,91.5 26.5,91.5 21.5,91.5C 21.5,87.5 21.5,83.5 21.5,79.5C 23.7354,79.7947 25.7354,79.4614 27.5,78.5C 29.1054,77.9941 29.4387,77.3274 28.5,76.5C 28.5,75.8333 28.5,75.1667 28.5,74.5C 27.713,72.8958 26.3797,72.2291 24.5,72.5C 22.0673,72.2144 22.0673,71.5477 24.5,70.5C 24.4346,70.9382 24.6012,71.2716 25,71.5C 25.7504,70.8742 26.5838,70.3742 27.5,70C 28.7383,69.31 28.7383,68.81 27.5,68.5C 27.5,67.8333 27.5,67.1667 27.5,66.5C 28.0431,66.44 28.3764,66.1067 28.5,65.5C 26.2573,64.5258 23.924,64.1924 21.5,64.5C 21.5,60.5 21.5,56.5 21.5,52.5 Z"/></g>
<g><path style="opacity:1" fill="#004aac" d="M 74.5,52.5 C 74.5,56.5 74.5,60.5 74.5,64.5C 70.2984,64.1832 66.2984,64.5166 62.5,65.5C 61.5128,70.3054 61.1795,75.3054 61.5,80.5C 62.5,80.5 63.5,80.5 64.5,80.5C 64.3342,75.8215 64.5008,71.1548 65,66.5C 71.9499,67.7837 75.7832,71.9504 76.5,79C 76.2508,86.4058 72.5841,90.9058 65.5,92.5C 63.1432,92.6633 60.8098,92.4966 58.5,92C 56.5952,90.5787 54.5952,89.412 52.5,88.5C 52.2914,87.0783 51.7914,85.745 51,84.5C 50.5003,76.5069 50.3336,68.5069 50.5,60.5C 52.3124,57.1904 54.9791,54.6904 58.5,53C 63.8229,52.5006 69.1563,52.334 74.5,52.5 Z"/></g>
<g><path style="opacity:1" fill="#014bac" d="M 81.5,52.5 C 89.8333,52.5 98.1667,52.5 106.5,52.5C 106.5,56.5 106.5,60.5 106.5,64.5C 102.298,64.1832 98.2984,64.5166 94.5,65.5C 102.132,67.1324 106.799,71.799 108.5,79.5C 108.017,86.6422 104.35,90.9756 97.5,92.5C 94.0977,92.6576 90.7644,92.3242 87.5,91.5C 86.5,89.8333 85.1667,88.5 83.5,87.5C 82.6618,87.1583 82.3284,86.4916 82.5,85.5C 82.5,84.1667 82.5,82.8333 82.5,81.5C 87.0323,81.8182 91.3656,81.4849 95.5,80.5C 96.7383,80.19 96.7383,79.69 95.5,79C 90.8452,78.5008 86.1785,78.3342 81.5,78.5C 81.5,69.8333 81.5,61.1667 81.5,52.5 Z"/></g>
<g><path style="opacity:1" fill="#047690" d="M 106.5,52.5 C 107.485,56.6344 107.818,60.9677 107.5,65.5C 103.167,65.5 98.8333,65.5 94.5,65.5C 98.2984,64.5166 102.298,64.1832 106.5,64.5C 106.5,60.5 106.5,56.5 106.5,52.5 Z"/></g>
<g><path style="opacity:1" fill="#014bab" d="M 170.5,52.5 C 170.5,61.5 170.5,70.5 170.5,79.5C 173.167,79.5 175.833,79.5 178.5,79.5C 178.5,83.5 178.5,87.5 178.5,91.5C 171.5,91.5 164.5,91.5 157.5,91.5C 157.5,78.5 157.5,65.5 157.5,52.5C 161.833,52.5 166.167,52.5 170.5,52.5 Z"/></g>
<g><path style="opacity:1" fill="#018984" d="M 170.5,52.5 C 171.493,60.9839 171.826,69.6506 171.5,78.5C 174.059,78.1984 176.393,78.5318 178.5,79.5C 175.833,79.5 173.167,79.5 170.5,79.5C 170.5,70.5 170.5,61.5 170.5,52.5 Z"/></g>
<g><path style="opacity:1" fill="#004aac" d="M 227.5,52.5 C 231.833,52.5 236.167,52.5 240.5,52.5C 240.5,65.5 240.5,78.5 240.5,91.5C 236.167,91.5 231.833,91.5 227.5,91.5C 227.5,78.5 227.5,65.5 227.5,52.5 Z"/></g>
<g><path style="opacity:1" fill="#014bab" d="M 248.5,52.5 C 256.073,58.1803 256.406,64.3469 249.5,71C 257.017,73.871 259.183,79.0377 256,86.5C 252.57,90.9173 248.07,92.5839 242.5,91.5C 242.5,78.5 242.5,65.5 242.5,52.5C 244.5,52.5 246.5,52.5 248.5,52.5 Z"/></g>
<g><path style="opacity:1" fill="#038b83" d="M 262.5,52.5 C 262.5,65.5 262.5,78.5 262.5,91.5C 270.5,91.5 278.5,91.5 286.5,91.5C 278.35,92.4927 270.017,92.8261 261.5,92.5C 261.171,78.9895 261.504,65.6562 262.5,52.5 Z"/></g>
<g><path style="opacity:1" fill="#004aac" d="M 262.5,52.5 C 270.5,52.5 278.5,52.5 286.5,52.5C 286.5,56.8333 286.5,61.1667 286.5,65.5C 282.833,65.5 279.167,65.5 275.5,65.5C 275.5,67.1667 275.5,68.8333 275.5,70.5C 277.857,70.3367 280.19,70.5034 282.5,71C 279.794,73.3706 277.461,76.0372 275.5,79C 279.152,79.4986 282.818,79.6653 286.5,79.5C 286.5,83.5 286.5,87.5 286.5,91.5C 278.5,91.5 270.5,91.5 262.5,91.5C 262.5,78.5 262.5,65.5 262.5,52.5 Z"/></g>
<g><path style="opacity:1" fill="#024bac" d="M 311.5,52.5 C 315.63,65.3507 319.297,78.3507 322.5,91.5C 318.5,91.5 314.5,91.5 310.5,91.5C 309.337,87.5185 308.171,83.5185 307,79.5C 305.554,81.9415 304.721,84.6081 304.5,87.5C 303.566,88.5676 303.232,89.901 303.5,91.5C 299.167,91.5 294.833,91.5 290.5,91.5C 293.757,78.7286 297.423,66.062 301.5,53.5C 304.768,52.513 308.102,52.1796 311.5,52.5 Z"/></g>
<g><path style="opacity:1" fill="#014bac" d="M 360.5,70.5 C 360.5,72.8333 360.5,75.1667 360.5,77.5C 359.596,78.209 359.263,79.209 359.5,80.5C 357.196,83.1413 354.862,85.808 352.5,88.5C 350.407,89.0447 348.407,89.878 346.5,91C 339.842,91.4996 333.175,91.6663 326.5,91.5C 326.5,78.5 326.5,65.5 326.5,52.5C 332.509,52.3338 338.509,52.5005 344.5,53C 353.895,55.2241 359.228,61.0574 360.5,70.5 Z"/></g>
<g><path style="opacity:0.958" fill="#c891b5" d="M 217.5,52.5 C 220.067,53.475 222.733,54.1417 225.5,54.5C 225.5,58.5 225.5,62.5 225.5,66.5C 223.297,61.3018 219.963,56.8018 215.5,53C 216.094,52.5357 216.761,52.369 217.5,52.5 Z"/></g>
<g><path style="opacity:0.729" fill="#0e7b5d" d="M 311.5,52.5 C 311.833,52.5 312.167,52.5 312.5,52.5C 316.167,63.8333 319.833,75.1667 323.5,86.5C 323.5,88.5 323.5,90.5 323.5,92.5C 318.968,92.8182 314.634,92.4849 310.5,91.5C 314.5,91.5 318.5,91.5 322.5,91.5C 319.297,78.3507 315.63,65.3507 311.5,52.5 Z"/></g>
<g><path style="opacity:0.854" fill="#304657" d="M 78.5,57.5 C 78.8333,57.5 79.1667,57.5 79.5,57.5C 79.8333,57.5 80.1667,57.5 80.5,57.5C 80.5,62.1667 80.5,66.8333 80.5,71.5C 79.8333,71.5 79.1667,71.5 78.5,71.5C 76.7041,70.2073 75.0375,68.7073 73.5,67C 75.1341,66.5065 76.8008,66.3398 78.5,66.5C 78.5,63.5 78.5,60.5 78.5,57.5 Z"/></g>
<g><path style="opacity:0.992" fill="#0ea962" d="M 148.5,53.5 C 150.474,56.4822 152.474,59.4822 154.5,62.5C 154.833,63.8333 155.167,63.8333 155.5,62.5C 155.833,62.5 156.167,62.5 156.5,62.5C 156.5,72.8333 156.5,83.1667 156.5,93.5C 156.768,95.099 156.434,96.4324 155.5,97.5C 153.833,96.5 152.5,95.1667 151.5,93.5C 151.288,91.6159 150.288,90.2826 148.5,89.5C 142.214,94.1125 135.214,95.6125 127.5,94C 125.68,93.7996 124.347,92.9663 123.5,91.5C 132.772,94.1088 141.106,92.4422 148.5,86.5C 150.192,88.3586 151.692,90.3586 153,92.5C 153.5,86.1754 153.666,79.8421 153.5,73.5C 148.456,73.1725 143.456,73.5059 138.5,74.5C 137.687,75.8139 136.687,76.9805 135.5,78C 127.252,78.7415 124.752,75.2415 128,67.5C 132.26,64.3856 135.76,65.0523 138.5,69.5C 143.456,70.4941 148.456,70.8275 153.5,70.5C 152.602,62.5353 148.602,56.702 141.5,53C 127.177,48.828 117.51,53.6614 112.5,67.5C 111.328,65.1231 111.661,62.7898 113.5,60.5C 120.107,50.0399 129.44,46.5399 141.5,50C 143.886,51.1932 146.22,52.3599 148.5,53.5 Z M 137.5,71.5 C 136.878,74.7756 134.878,76.1089 131.5,75.5C 132.802,73.1782 134.802,71.8449 137.5,71.5 Z"/></g>
<g><path style="opacity:0.859" fill="#2f3e53" d="M 287.5,57.5 C 287.833,57.5 288.167,57.5 288.5,57.5C 289.486,61.97 289.819,66.6367 289.5,71.5C 287.833,71.5 286.167,71.5 284.5,71.5C 284.557,70.391 284.89,69.391 285.5,68.5C 286.5,68.1667 287.167,67.5 287.5,66.5C 287.5,63.5 287.5,60.5 287.5,57.5 Z"/></g>
<g><path style="opacity:1" fill="#333a53" d="M 173.5,57.5 C 174.213,62.3979 174.879,67.3979 175.5,72.5C 175.5,73.8333 175.5,75.1667 175.5,76.5C 173.544,70.588 172.877,64.2547 173.5,57.5 Z"/></g>
<g><path style="opacity:0.912" fill="#2d394e" d="M 46.5,61.5 C 48.7923,65.2065 49.1256,69.2065 47.5,73.5C 46.0384,72.5423 44.7051,71.3756 43.5,70C 45.4971,67.5084 46.4971,64.675 46.5,61.5 Z"/></g>
<g><path style="opacity:0.971" fill="#303c51" d="M 256.5,61.5 C 257.931,62.7804 258.598,64.4471 258.5,66.5C 257.715,68.3736 257.048,70.3736 256.5,72.5C 255.188,71.8549 254.188,70.8549 253.5,69.5C 255.623,67.2546 256.623,64.5879 256.5,61.5 Z"/></g>
<g><path style="opacity:0.797" fill="#08aa5e" d="M 21.5,64.5 C 23.924,64.1924 26.2573,64.5258 28.5,65.5C 28.3764,66.1067 28.0431,66.44 27.5,66.5C 24.9179,66.9746 22.9179,66.3079 21.5,64.5 Z"/></g>
<g><path style="opacity:1" fill="#02669a" d="M 74.5,52.5 C 75.4849,56.6344 75.8182,60.9677 75.5,65.5C 71.1667,65.5 66.8333,65.5 62.5,65.5C 66.2984,64.5166 70.2984,64.1832 74.5,64.5C 74.5,60.5 74.5,56.5 74.5,52.5 Z"/></g>
<g><path style="opacity:1" fill="#08aa68" d="M 388.5,64.5 C 386.695,66.1969 384.361,67.0302 381.5,67C 382.056,67.3826 382.389,67.8826 382.5,68.5C 379.161,67.9596 376.994,66.2929 376,63.5C 380.066,64.4637 384.233,64.797 388.5,64.5 Z"/></g>
<g><path style="opacity:0.966" fill="#2c3d50" d="M 388.5,61.5 C 390.118,64.1709 390.785,67.1709 390.5,70.5C 388.517,70.1568 387.183,70.8235 386.5,72.5C 384.833,71.5 383.5,70.1667 382.5,68.5C 382.389,67.8826 382.056,67.3826 381.5,67C 384.361,67.0302 386.695,66.1969 388.5,64.5C 388.5,63.5 388.5,62.5 388.5,61.5 Z"/></g>
<g><path style="opacity:0.984" fill="#0ab467" d="M 342.5,66.5 C 346.685,68.9128 347.519,72.2461 345,76.5C 343.67,77.5822 342.17,78.2488 340.5,78.5C 340.866,76.095 341.533,73.7617 342.5,71.5C 342.278,69.9446 341.611,68.6113 340.5,67.5C 340.957,66.7025 341.624,66.3691 342.5,66.5 Z"/></g>
<g><path style="opacity:1" fill="#2c4d5b" d="M 110.5,57.5 C 111.9,58.0998 112.9,59.0998 113.5,60.5C 111.661,62.7898 111.328,65.1231 112.5,67.5C 112.5,70.5 112.5,73.5 112.5,76.5C 111.962,74.1944 111.295,72.5277 110.5,71.5C 110.167,71.5 109.833,71.5 109.5,71.5C 108.028,69.8657 106.362,68.3657 104.5,67C 106.473,66.5045 108.473,66.3379 110.5,66.5C 110.5,63.5 110.5,60.5 110.5,57.5 Z"/></g>
<g><path style="opacity:0.963" fill="#313d55" d="M 137.5,71.5 C 134.802,71.8449 132.802,73.1782 131.5,75.5C 128.86,73.1206 128.86,70.6206 131.5,68C 134.872,66.8785 136.872,68.0451 137.5,71.5 Z"/></g>
<g><path style="opacity:1" fill="#cd94bb" d="M 258.5,66.5 C 258.833,66.5 259.167,66.5 259.5,66.5C 259.5,71.1667 259.5,75.8333 259.5,80.5C 259.167,80.5 258.833,80.5 258.5,80.5C 258.416,77.6726 257.75,75.006 256.5,72.5C 257.048,70.3736 257.715,68.3736 258.5,66.5 Z"/></g>
<g><path style="opacity:1" fill="#1a835e" d="M 287.5,66.5 C 287.167,67.5 286.5,68.1667 285.5,68.5C 282.428,68.8174 279.428,68.4841 276.5,67.5C 280.107,66.5108 283.774,66.1774 287.5,66.5 Z"/></g>
<g><path style="opacity:1" fill="#226473" d="M 342.5,66.5 C 341.624,66.3691 340.957,66.7025 340.5,67.5C 341.611,68.6113 342.278,69.9446 342.5,71.5C 341.533,73.7617 340.866,76.095 340.5,78.5C 339.515,74.3656 339.182,70.0323 339.5,65.5C 340.791,65.2627 341.791,65.596 342.5,66.5 Z"/></g>
<g><path style="opacity:0.873" fill="#049e5b" d="M 27.5,68.5 C 28.7383,68.81 28.7383,69.31 27.5,70C 26.5838,70.3742 25.7504,70.8742 25,71.5C 24.6012,71.2716 24.4346,70.9382 24.5,70.5C 24.9731,69.0937 25.9731,68.427 27.5,68.5 Z"/></g>
<g><path style="opacity:1" fill="#14a169" d="M 248.5,52.5 C 249.5,52.5 250.5,52.5 251.5,52.5C 254.931,54.3477 256.597,57.3477 256.5,61.5C 256.623,64.5879 255.623,67.2546 253.5,69.5C 254.188,70.8549 255.188,71.8549 256.5,72.5C 257.75,75.006 258.416,77.6726 258.5,80.5C 257.981,88.0197 253.981,92.3531 246.5,93.5C 245.167,92.8333 243.833,92.1667 242.5,91.5C 248.07,92.5839 252.57,90.9173 256,86.5C 259.183,79.0377 257.017,73.871 249.5,71C 256.406,64.3469 256.073,58.1803 248.5,52.5 Z"/></g>
<g><path style="opacity:0.909" fill="#293c53" d="M 360.5,70.5 C 361.803,72.1423 363.136,73.8089 364.5,75.5C 363.662,75.8417 363.328,76.5084 363.5,77.5C 362.5,77.5 361.5,77.5 360.5,77.5C 360.5,75.1667 360.5,72.8333 360.5,70.5 Z"/></g>
<g><path style="opacity:0.212" fill="#05774b" d="M 24.5,72.5 C 26.3797,72.2291 27.713,72.8958 28.5,74.5C 26.6203,74.7709 25.287,74.1042 24.5,72.5 Z"/></g>
<g><path style="opacity:0.259" fill="#202a38" d="M 281.5,74.5 C 283.781,74.0773 285.448,74.744 286.5,76.5C 284.143,76.6633 281.81,76.4966 279.5,76C 280.044,75.2828 280.711,74.7828 281.5,74.5 Z"/></g>
<g><path style="opacity:0.799" fill="#04ba65" d="M 22.5,76.5 C 24.5,76.5 26.5,76.5 28.5,76.5C 29.4387,77.3274 29.1054,77.9941 27.5,78.5C 25.2188,78.9227 23.5521,78.256 22.5,76.5 Z"/></g>
<g><path style="opacity:1" fill="#0bb368" d="M 200.5,65.5 C 207.369,65.5377 209.869,68.871 208,75.5C 204.333,79.5 200.667,79.5 197,75.5C 195.581,71.0823 196.748,67.7489 200.5,65.5 Z"/></g>
<g><path style="opacity:0.969" fill="#c898b9" d="M 204.5,72.5 C 205.167,72.5 205.833,72.5 206.5,72.5C 205.664,76.1906 203.664,77.1906 200.5,75.5C 200.694,73.0882 202.027,72.0882 204.5,72.5 Z"/></g>
<g><path style="opacity:0.965" fill="#344058" d="M 206.5,71.5 C 205.508,71.3284 204.842,71.6618 204.5,72.5C 202.027,72.0882 200.694,73.0882 200.5,75.5C 197.86,73.1206 197.86,70.6206 200.5,68C 203.872,66.8785 205.872,68.0451 206.5,71.5 Z"/></g>
<g><path style="opacity:0.966" fill="#2f3a52" d="M 225.5,76.5 C 225.5,80.1667 225.5,83.8333 225.5,87.5C 217.068,99.0507 206.402,101.551 193.5,95C 192.29,93.9609 191.29,92.7942 190.5,91.5C 207.261,98.2845 218.927,93.2845 225.5,76.5 Z"/></g>
<g><path style="opacity:1" fill="#0a7971" d="M 22.5,76.5 C 23.5521,78.256 25.2188,78.9227 27.5,78.5C 25.7354,79.4614 23.7354,79.7947 21.5,79.5C 21.2627,78.209 21.596,77.209 22.5,76.5 Z"/></g>
<g><path style="opacity:1" fill="#07b36a" d="M 81.5,78.5 C 86.1785,78.3342 90.8452,78.5008 95.5,79C 96.7383,79.69 96.7383,80.19 95.5,80.5C 90.8333,80.5 86.1667,80.5 81.5,80.5C 81.5,79.8333 81.5,79.1667 81.5,78.5 Z"/></g>
<g><path style="opacity:1" fill="#156998" d="M 363.5,80.5 C 367.298,79.5166 371.298,79.1832 375.5,79.5C 376.773,80.0768 376.773,80.7435 375.5,81.5C 371.571,80.5672 367.571,80.2338 363.5,80.5 Z"/></g>
<g><path style="opacity:0.959" fill="#2e3a50" d="M 111.5,80.5 C 112.674,81.5137 113.34,82.847 113.5,84.5C 112.148,95.0234 106.148,99.5234 95.5,98C 92.8936,97.2082 90.8936,95.7082 89.5,93.5C 90.8333,93.8333 92.1667,94.1667 93.5,94.5C 103.326,94.6674 109.326,90.0008 111.5,80.5 Z"/></g>
<g><path style="opacity:0.96" fill="#2f4158" d="M 79.5,78.5 C 80.2679,79.2625 80.7679,80.2625 81,81.5C 81.3988,81.2716 81.5654,80.9382 81.5,80.5C 86.1667,80.5 90.8333,80.5 95.5,80.5C 91.3656,81.4849 87.0323,81.8182 82.5,81.5C 82.5,82.8333 82.5,84.1667 82.5,85.5C 80.5452,95.2662 74.5452,99.4329 64.5,98C 61.7435,97.0617 59.4101,95.5617 57.5,93.5C 58.9587,93.4326 60.2921,93.7659 61.5,94.5C 72.8513,95.1473 78.8513,89.8139 79.5,78.5 Z"/></g>
<g><path style="opacity:0.97" fill="#303b53" d="M 258.5,80.5 C 258.833,80.5 259.167,80.5 259.5,80.5C 259.5,84.5 259.5,88.5 259.5,92.5C 255.924,96.8849 251.257,98.5516 245.5,97.5C 245.5,96.1667 245.5,94.8333 245.5,93.5C 245.833,93.5 246.167,93.5 246.5,93.5C 253.981,92.3531 257.981,88.0197 258.5,80.5 Z"/></g>
<g><path style="opacity:0.93" fill="#313d56" d="M 359.5,80.5 C 359.674,82.861 360.007,85.1944 360.5,87.5C 357.45,92.3778 353.117,95.5445 347.5,97C 341.175,97.4995 334.842,97.6662 328.5,97.5C 328.5,96.1667 328.5,94.8333 328.5,93.5C 333.167,93.5 337.833,93.5 342.5,93.5C 346.431,92.8678 349.765,91.2011 352.5,88.5C 354.862,85.808 357.196,83.1413 359.5,80.5 Z"/></g>
<g><path style="opacity:0.946" fill="#2f3e56" d="M 388.5,77.5 C 392.058,84.9359 390.725,91.4359 384.5,97C 377.874,99.8059 372.207,98.6392 367.5,93.5C 370.779,94.4922 374.112,94.6588 377.5,94C 375.942,93.79 374.609,93.29 373.5,92.5C 384.072,93.0507 389.072,88.0507 388.5,77.5 Z"/></g>
<g><path style="opacity:1" fill="#12a363" d="M 229.5,45.5 C 230.167,45.5 230.5,45.8333 230.5,46.5C 226.047,48.2263 221.714,50.2263 217.5,52.5C 216.761,52.369 216.094,52.5357 215.5,53C 219.963,56.8018 223.297,61.3018 225.5,66.5C 225.5,69.8333 225.5,73.1667 225.5,76.5C 218.927,93.2845 207.261,98.2845 190.5,91.5C 189.5,90.8333 188.5,90.1667 187.5,89.5C 187.158,88.6618 186.492,88.3284 185.5,88.5C 185.5,88.1667 185.5,87.8333 185.5,87.5C 186.167,87.5 186.833,87.5 187.5,87.5C 196.447,93.584 205.78,94.084 215.5,89C 224.926,79.1706 225.759,68.6706 218,57.5C 201.91,46.7883 189.744,50.1217 181.5,67.5C 181.5,66.8333 181.167,66.5 180.5,66.5C 181.562,64.7659 181.562,63.0992 180.5,61.5C 182.144,61.1898 183.144,60.1898 183.5,58.5C 186.958,54.6989 190.958,51.6989 195.5,49.5C 196.167,49.5 196.833,49.5 197.5,49.5C 203.214,48.0536 208.714,48.7202 214,51.5C 219.143,49.3416 224.31,47.3416 229.5,45.5 Z"/></g>
<g><path style="opacity:0.974" fill="#2d4258" d="M 50.5,60.5 C 50.3336,68.5069 50.5003,76.5069 51,84.5C 51.7914,85.745 52.2914,87.0783 52.5,88.5C 51.8826,88.3893 51.3826,88.056 51,87.5C 50.2854,92.1047 47.7854,95.2714 43.5,97C 38.1771,97.4994 32.8437,97.666 27.5,97.5C 27.5,96.1667 27.5,94.8333 27.5,93.5C 32.5988,93.8254 37.5988,93.3254 42.5,92C 47.6685,88.4943 49.6685,83.661 48.5,77.5C 49.1667,71.8333 49.8333,66.1667 50.5,60.5 Z"/></g>
<g><path style="opacity:0.416" fill="#0d875a" d="M 112.5,78.5 C 115.042,83.7152 118.709,88.0485 123.5,91.5C 122.833,91.5 122.167,91.5 121.5,91.5C 118.19,89.8536 115.523,87.5203 113.5,84.5C 113.34,82.847 112.674,81.5137 111.5,80.5C 111.833,79.8333 112.167,79.1667 112.5,78.5 Z"/></g>
<g><path style="opacity:1" fill="#196d52" d="M 182.5,82.5 C 181.833,82.5 181.5,82.8333 181.5,83.5C 181.813,87.0419 181.479,90.3752 180.5,93.5C 180.334,89.1539 180.501,84.8206 181,80.5C 181.717,81.0442 182.217,81.7109 182.5,82.5 Z"/></g>
<g><path style="opacity:0.997" fill="#3a3c53" d="M 181.5,83.5 C 181.833,83.5 182.167,83.5 182.5,83.5C 183.338,83.8417 183.672,84.5084 183.5,85.5C 183.343,86.8734 183.51,88.2068 184,89.5C 184.383,88.944 184.883,88.6107 185.5,88.5C 186.492,88.3284 187.158,88.6618 187.5,89.5C 184.294,91.0643 182.96,93.731 183.5,97.5C 175.316,97.8257 167.316,97.4924 159.5,96.5C 160.376,96.6309 161.043,96.2975 161.5,95.5C 160.398,94.8243 159.398,94.1577 158.5,93.5C 165.833,93.5 173.167,93.5 180.5,93.5C 181.479,90.3752 181.813,87.0419 181.5,83.5 Z"/></g>
<g><path style="opacity:0.051" fill="#006941" d="M 83.5,87.5 C 85.1667,88.5 86.5,89.8333 87.5,91.5C 85.1667,91.1667 83.8333,89.8333 83.5,87.5 Z"/></g>
<g><path style="opacity:0.892" fill="#313f56" d="M 304.5,87.5 C 306.231,88.9855 307.231,90.9855 307.5,93.5C 306.751,94.531 306.085,95.6976 305.5,97C 301.179,97.499 296.846,97.6657 292.5,97.5C 292.5,96.1667 292.5,94.8333 292.5,93.5C 296.649,94.0803 300.316,93.4136 303.5,91.5C 303.232,89.901 303.566,88.5676 304.5,87.5 Z"/></g>
<g><path style="opacity:0.956" fill="#2f3951" d="M 151.5,93.5 C 144.49,98.58 136.823,99.7466 128.5,97C 125.405,96.0646 123.071,94.2313 121.5,91.5C 122.167,91.5 122.833,91.5 123.5,91.5C 124.347,92.9663 125.68,93.7996 127.5,94C 135.214,95.6125 142.214,94.1125 148.5,89.5C 150.288,90.2826 151.288,91.6159 151.5,93.5 Z"/></g>
<g><path style="opacity:0.957" fill="#187d73" d="M 52.5,88.5 C 54.5952,89.412 56.5952,90.5787 58.5,92C 60.8098,92.4966 63.1432,92.6633 65.5,92.5C 64.1667,93.1667 62.8333,93.8333 61.5,94.5C 60.2921,93.7659 58.9587,93.4326 57.5,93.5C 55.5273,92.194 53.8606,90.5273 52.5,88.5 Z"/></g>
<g><path style="opacity:1" fill="#048080" d="M 21.5,91.5 C 26.5,91.5 31.5,91.5 36.5,91.5C 31.8333,92.1667 27.1667,92.8333 22.5,93.5C 21.6618,93.1583 21.3284,92.4916 21.5,91.5 Z"/></g>
<g><path style="opacity:1" fill="#188375" d="M 352.5,88.5 C 349.765,91.2011 346.431,92.8678 342.5,93.5C 337.167,92.8333 331.833,92.1667 326.5,91.5C 333.175,91.6663 339.842,91.4996 346.5,91C 348.407,89.878 350.407,89.0447 352.5,88.5 Z"/></g>
<g><path style="opacity:1" fill="#19856d" d="M 87.5,91.5 C 90.7644,92.3242 94.0977,92.6576 97.5,92.5C 96.1667,93.1667 94.8333,93.8333 93.5,94.5C 92.1667,94.1667 90.8333,93.8333 89.5,93.5C 88.5,93.1667 87.8333,92.5 87.5,91.5 Z"/></g>
<g><path style="opacity:0.934" fill="#2e374f" d="M 230.5,93.5 C 235.167,93.5 239.833,93.5 244.5,93.5C 244.5,94.8333 244.5,96.1667 244.5,97.5C 239.833,97.5 235.167,97.5 230.5,97.5C 230.5,96.1667 230.5,94.8333 230.5,93.5 Z"/></g>
<g><path style="opacity:0.865" fill="#343e59" d="M 264.5,93.5 C 272.833,93.5 281.167,93.5 289.5,93.5C 289.5,94.8333 289.5,96.1667 289.5,97.5C 281.167,97.5 272.833,97.5 264.5,97.5C 264.5,96.1667 264.5,94.8333 264.5,93.5 Z"/></g>
<g><path style="opacity:0.865" fill="#313b55" d="M 311.5,93.5 C 316.167,93.5 320.833,93.5 325.5,93.5C 325.5,94.8333 325.5,96.1667 325.5,97.5C 321.154,97.6657 316.821,97.499 312.5,97C 311.663,95.9887 311.33,94.8221 311.5,93.5 Z"/></g>
<g><path style="opacity:0.992" fill="#d294be" d="M 157.5,93.5 C 157.833,93.5 158.167,93.5 158.5,93.5C 159.398,94.1577 160.398,94.8243 161.5,95.5C 161.043,96.2975 160.376,96.6309 159.5,96.5C 159.167,96.5 158.833,96.5 158.5,96.5C 157.596,95.791 157.263,94.791 157.5,93.5 Z"/></g>
<g><path style="opacity:0.02" fill="#1d2630" d="M 156.5,93.5 C 156.833,93.5 157.167,93.5 157.5,93.5C 157.263,94.791 157.596,95.791 158.5,96.5C 157.947,98.5518 156.947,98.8852 155.5,97.5C 156.434,96.4324 156.768,95.099 156.5,93.5 Z"/></g>
<g><path style="opacity:0.943" fill="#003d90" d="M 151.5,104.5 C 153.218,108.098 154.384,112.098 155,116.5C 159.034,120.291 163.867,122.125 169.5,122C 175.5,122.333 181.5,122.667 187.5,123C 179.82,123.514 172.153,124.181 164.5,125C 159.427,125.441 155.927,127.941 154,132.5C 153.821,135.553 153.321,138.553 152.5,141.5C 152.011,136.718 150.678,132.218 148.5,128C 146.043,126.438 143.376,125.438 140.5,125C 132.847,124.181 125.18,123.514 117.5,123C 123.5,122.667 129.5,122.333 135.5,122C 147.683,122.321 153.016,116.487 151.5,104.5 Z"/></g>
</svg>
