<svg xmlns="http://www.w3.org/2000/svg" viewBox="0 0 24 24" id="hootsuite"><path d="M14.612 8.71c.21.063.425.097.643.098a2.166 2.166 0 0 0 2.177-2.155 2.165 2.165 0 0 0-2.166-2.164 2.113 2.113 0 0 0-.641.094c.548.244.793.883.55 1.428a1.092 1.092 0 0 1-1.987-.008 2.16 2.16 0 0 0 1.424 2.707zm-5.868.079a2.165 2.165 0 0 0 2.179-2.15 2.125 2.125 0 0 0-.096-.644 1.09 1.09 0 0 1-1.433.546 1.078 1.078 0 0 1 .001-1.975 2.173 2.173 0 0 0-2.818 2.056A2.165 2.165 0 0 0 8.74 8.789h.004z"></path><path d="m19.591 23.998.659.002V.022h-.679a8.24 8.24 0 0 0-3.76.906A8.282 8.282 0 0 0 12.026 0h-.023A8.304 8.304 0 0 0 8.19.927 8.246 8.246 0 0 0 4.431.021H3.75V8.23a15.536 15.536 0 0 0 4.632 11.143 15.863 15.863 0 0 0 11.209 4.625zM5.99 8.35a3.23 3.23 0 0 1 1.027-4.467 3.267 3.267 0 0 1 4.49 1.022c.274.437.442.933.485 1.446l.016-.02.015.018a3.25 3.25 0 0 1 3.248-2.941 3.248 3.248 0 0 1 3.253 3.242 3.247 3.247 0 0 1-3.26 3.236 3.258 3.258 0 0 1-1.748-.508l-1.524 1.508-1.514-1.516A3.264 3.264 0 0 1 5.99 8.35z"></path></svg>